# xmcd
#
# Track frame offsets: 
#        150
#        49270
#        65307
#        78850
#        97320
#        112102
#        122287
#        134462
#        147565
#        167630
#
# Disc length: 2442 seconds
#
# Revision: 0
# Processed by: cddbd v1.5.2PL0 Copyright (c) Steve Scherf et al.
# Submitted via: ExactAudioCopy v0.99pb4
#
DISCID=8e09880a
DTITLE=Margie Joseph - Margie Joseph Makes A New Impression
DYEAR=1971
DGENRE=Soul
TTITLE0=Monologue Woman Talk Stop In The Name Of Love
TTITLE1=Punish Me
TTITLE2=Medecine Bend
TTITLE3=Come Tomorrow
TTITLE4=Sweeter Tomorrow
TTITLE5=Same Thing
TTITLE6=How Beautiful The Rain
TTITLE7=I'm Fed Up
TTITLE8=Make Me Believe You'll Stay
TTITLE9=Temptation's About To Take Your Love
EXTD=
EXTT0=
EXTT1=
EXTT2=
EXTT3=
EXTT4=
EXTT5=
EXTT6=
EXTT7=
EXTT8=
EXTT9=
PLAYORDER=
